# AST/ASF file generated using VICON BodyLanguage
# -----------------------------------------------
:version 1.10
:name VICON
:units
  mass 1.0
  length 0.45
  angle deg
:documentation
   .ast/.asf automatically generated from VICON data using
   VICON BodyBuilder and BodyLanguage model FoxedUp or BRILLIANT.MOD
:root
   order TX TY TZ RX RY RZ
   axis XYZ
   position 0 0 0  
   orientation 0 0 0 
:bonedata
  begin
     id 1 
     name lhipjoint
     direction 0.610259 -0.730986 0.305356 
     length 2.50941 
     axis 0 0 0  XYZ
  end
  begin
     id 2 
     name lfemur
     direction 0.34202 -0.939693 0  
     length 7.48822  
     axis 0 0 20  XYZ
    dof rx ry rz
    limits (-160.0 20.0)
           (-70.0 70.0)
           (-60.0 70.0)
  end
  begin
     id 3 
     name ltibia
     direction 0.34202 -0.939693 0   
     length 7.60141   
     axis 0 0 20   XYZ
    dof rx
    limits (-10.0 170.0)
  end
  begin
     id 4 
     name lfoot
     direction 0.0673488 -0.185039 0.980421   
     length 2.04049   
     axis -90 7.62852e-016 20   XYZ
    dof rx rz
    limits (-45.0 90.0)
           (-70.0 20.0)
  end
  begin
     id 5 
     name ltoes
     direction 1.5356e-011 -4.21729e-011 1   
     length 1.02897   
     axis -90 7.62852e-016 20   XYZ
    dof rx
    limits (-90.0 20.0)
  end
  begin
     id 6 
     name rhipjoint
     direction -0.57612 -0.754205 0.315056   
     length 2.43216  
     axis 0 0 0  XYZ 
  end
  begin
     id 7 
     name rfemur
     direction -0.34202 -0.939693 0   
     length 7.42799   
     axis 0 0 -20   XYZ
    dof rx ry rz
    limits (-160.0 20.0)
           (-70.0 70.0)
           (-70.0 60.0)
  end
  begin
     id 8 
     name rtibia
     direction -0.34202 -0.939693 0   
     length 7.69484   
     axis 0 0 -20   XYZ
    dof rx
    limits (-10.0 170.0)
 end
 begin
     id 9 
     name rfoot
     direction -0.111837 -0.30727 0.945028   
     length 2.15769  
     axis -90 -7.62852e-016 -20   XYZ
    dof rx rz
    limits (-45.0 90.0)
           (-20.0 70.0)
  end
  begin
     id 10 
     name rtoes
     direction -1.53539e-011 -4.21878e-011 1   
     length 1.07391   
     axis -90 -7.62852e-016 -20   XYZ
    dof rx
    limits (-90.0 20.0)
  end
  begin
     id 11 
     name lowerback
     direction 0.00552624 0.990109 -0.140195   
     length 2.12403   
     axis 0 0 0   XYZ
    dof rx ry rz
    limits (-20.0 45.0)
           (-30.0 30.0)
           (-30.0 30.0)
  end
  begin
     id 12 
     name upperback
     direction 0.00361898 0.999976 -0.00584723   
     length 2.13232   
     axis 0 0 0   XYZ
    dof rx ry rz
    limits (-20.0 45.0)
           (-30.0 30.0)
           (-30.0 30.0)
  end
  begin
     id 13 
     name thorax
     direction -0.000331275 0.998253 0.0590847   
     length 2.17688   
     axis 0 0 0   XYZ
    dof rx ry rz
    limits (-20.0 45.0)
           (-30.0 30.0)
           (-30.0 30.0)
  end
  begin
     id 14 
     name lowerneck
     direction -0.0561561 0.979832 0.19177   
     length 1.64159   
     axis 0 0 0   XYZ
    dof rx ry rz
    limits (-20.0 45.0)
           (-30.0 30.0)
           (-30.0 30.0)
  end
  begin
     id 15 
     name upperneck
     direction 0.0827153 0.979385 -0.184293   
     length 1.68939   
     axis 0 0 0   XYZ
    dof rx ry rz
    limits (-20.0 45.0)
           (-30.0 30.0)
           (-30.0 30.0)
  end
  begin
     id 16
     name head
     direction 0.0278583 0.995936 -0.0856488  
     length 1.70207  
     axis 0 0 0   XYZ
    dof rx ry rz
    limits (-20.0 45.0)
           (-30.0 30.0)
           (-30.0 30.0)
  end
  begin
     id 17 
     name lclavicle
     direction 0.950993 0.301131 -0.0702275  
     length 3.41652  
     axis 0 0 0   XYZ
    dof ry rz
    limits (-20.0 10.0)
           (0.0 20.0)
  end
  begin
     id 18 
     name lhumerus
     direction 1 -4.48981e-011 -3.9662e-029   
     length 5.32955   
     axis 180 -30 -90   XYZ
    dof rx ry rz
    limits (-60.0 90.0)
           (-90.0 90.0)
           (-90.0 90.0)
  end
  begin
     id 19
     name lradius
     direction 1 -4.48925e-011 -9.0549e-027   
     length 3.69232   
     axis 180 -30 -90   XYZ
    dof rx
    limits (-10.0 170.0)
  end
  begin
     id 20
     name lwrist
     direction 1 -4.49007e-011 -1.49005e-026   
     length 1.84616   
     axis 9.0955e-015 90 90   XYZ
    dof ry
    limits (-180.0 0.0)
 end
  begin
     id 21 
     name lhand
     direction 1 -4.49016e-011 -2.98023e-026   
     length 0.536598   
     axis 1.90115e-014 90 90   XYZ
    dof rx rz
    limits (-90.0 90.0)
           (-45.0 45.0)
  end
  begin
     id 22 
     name lfingers
     direction 1 -4.48924e-011 -5.9578e-026   
     length 0.432619   
     axis 3.80223e-014 90 90   XYZ
    dof rx
    limits (0.0 90.0)
  end
  begin
     id 23
     name lthumb
     direction 0.707107 -6.34947e-011 0.707107   
     length 0.621157   
     axis -90 45 -3.84942e-014   XYZ
    dof rx rz
    limits (-45.0 45.0)
           (-45.0 45.0)
  end
  begin
     id 24 
     name rclavicle
     direction -0.955495 0.276497 -0.102848   
     length 3.36357  
     axis 0 0 0   XYZ 
    dof ry rz
    limits (-10.0 20.0)
           (-20.0 0.0)
  end
  begin
     id 25 
     name rhumerus
     direction -1 -4.48961e-011 3.30983e-027  
     length 5.23431   
     axis 180 30 90   XYZ
    dof rx ry rz
    limits (-90.0 60.0)
           (-90.0 90.0)
           (-90.0 90.0)
  end
  begin
     id 26 
     name rradius
     direction -1 -4.48965e-011 -6.63263e-027   
     length 3.55301   
     axis 180 30 90   XYZ
    dof rx
    limits (-10.0 170.0)
  end
  begin
     id 27 
     name rwrist
     direction -1 -4.48942e-011 -1.48958e-026   
     length 1.77651   
     axis 9.0955e-015 -90 -90   XYZ
    dof ry
    limits (-180.0 0.0)
  end
  begin
     id 28
     name rhand
     direction -1 -4.48977e-011 -2.97966e-026   
     length 0.772522   
     axis 1.90115e-014 -90 -90   XYZ
    dof rx rz
    limits (-90.0 90.0)
           (-45.0 45.0)
  end
  begin
     id 29
     name rfingers
     direction -1 -4.49135e-011 -5.96389e-026   
     length 0.622827   
     axis 3.80223e-014 -90 -90   XYZ
    dof rx
    limits (0.0 90.0)
  end
  begin
     id 30
     name rthumb
     direction -0.707107 -6.34969e-011 0.707107   
     length 0.894259   
     axis -90 -45 3.84942e-014   XYZ
    dof rx rz
    limits (-45.0 45.0)
           (-45.0 45.0)
  end
:hierarchy
  begin
    root lhipjoint rhipjoint lowerback
    lhipjoint lfemur
    lfemur ltibia
    ltibia lfoot
    lfoot ltoes
    rhipjoint rfemur
    rfemur rtibia
    rtibia rfoot
    rfoot rtoes
    lowerback upperback
    upperback thorax
    thorax lowerneck lclavicle rclavicle
    lowerneck upperneck
    upperneck head
    lclavicle lhumerus
    lhumerus lradius
    lradius lwrist
    lwrist lhand lthumb
    lhand lfingers
    rclavicle rhumerus
    rhumerus rradius
    rradius rwrist
    rwrist rhand rthumb
    rhand rfingers
  end

#!OML:ASF F:\VICON\USERDATA\INSTALL\rory3\rory3.ASF
:FULLY-SPECIFIED
:DEGREES
35
root 10.6557 17.7909 -8.2142 0.575713 0.569734 -2.09978
lowerback 10.3467 2.3494 3.11971
upperback 1.6596 3.47977 0.408461
thorax -3.90229 1.68375 -1.79328
lowerneck -19.1075 -7.52343 -12.6103
upperneck 25.3705 -9.65719 10.1536
head 12.7844 -4.24854 4.36244
rclavicle -1.27843e-014 -4.96962e-015
rhumerus -28.9838 -3.92525 -87.675
rradius 35.1886
rwrist 2.85135
rhand -14.8256 9.11821
rfingers 7.12502
rthumb 11.333 -20.5556
lclavicle -1.27843e-014 -4.96962e-015
lhumerus -38.8089 9.87971 79.5947
lradius 27.4423
lwrist -8.44473
lhand -20.9892 22.8897
lfingers 7.12502
lthumb 5.38478 52.8013
rfemur 7.74903 -0.436214 28.4991
rtibia 14.3487
rfoot -17.1432 -2.11383
rtoes 1.41104
lfemur -26.1579 -2.10262 -15.9077
ltibia 18.2051
lfoot -6.53303 2.3413
ltoes -11.8864
36
root 10.6637 17.7845 -8.13707 0.687002 0.463793 -2.11995
lowerback 10.2574 2.40779 3.0485
upperback 1.68638 3.54718 0.448519
thorax -3.82835 1.72001 -1.71518
lowerneck -19.2049 -7.53104 -12.5981
upperneck 25.297 -9.6387 10.1075
head 12.7684 -4.24175 4.34146
rclavicle -3.48867e-014 -1.91827e-014
rhumerus -28.7693 -3.67787 -87.6922
rradius 35.1561
rwrist 2.7187
rhand -14.6061 9.21853
rfingers 7.12502
rthumb 11.5447 -20.4435
lclavicle -3.48867e-014 -1.91827e-014
lhumerus -38.8838 10.013 79.6675
lradius 27.5634
lwrist -8.47935
lhand -20.7424 23.2759
lfingers 7.12502
lthumb 5.62305 53.1813
rfemur 7.93315 -0.53323 28.4464
rtibia 14.2284
rfoot -17.1218 -1.93545
rtoes 0.792914
lfemur -26.1834 -2.03581 -15.8948
ltibia 17.9311
lfoot -6.4479 2.52249
ltoes -10.3852
37
root 10.6746 17.7796 -8.05572 0.759415 0.400756 -2.21793
lowerback 10.0608 2.428 3.09262
upperback 1.80608 3.57132 0.515976
thorax -3.59512 1.73768 -1.65893
lowerneck -19.361 -7.53748 -12.6806
upperneck 25.2496 -9.60624 10.1407
head 12.7837 -4.22633 4.37027
rclavicle 3.37934e-015 3.13086e-014
rhumerus -28.3941 -3.41835 -87.7001
rradius 35.1344
rwrist 2.61133
rhand -14.5069 9.05033
rfingers 7.12502
rthumb 11.6403 -20.6063
lclavicle 3.37934e-015 3.13086e-014
lhumerus -38.665 10.3158 79.7083
lradius 27.3525
lwrist -8.65968
lhand -20.6416 23.2932
lfingers 7.12502
lthumb 5.72035 53.196
rfemur 8.19052 -0.638957 28.4729
rtibia 14.13
rfoot -17.063 -1.71428
rtoes 0.287222
lfemur -26.1819 -2.05226 -15.8031
ltibia 17.701
lfoot -6.39158 2.80376
ltoes -9.56453
38
root 10.6856 17.7773 -7.97847 0.901298 0.347169 -2.3722
lowerback 9.88776 2.44618 3.23089
upperback 1.85427 3.60297 0.537757
thorax -3.44038 1.75567 -1.70673
lowerneck -19.4959 -7.54202 -12.6315
upperneck 25.2058 -9.61062 10.1494
head 12.7918 -4.21811 4.36086
rclavicle 4.91992e-015 1.44119e-014
rhumerus -28.0782 -3.36884 -87.7439
rradius 35.0113
rwrist 2.71134
rhand -14.364 8.81081
rfingers 7.12502
rthumb 11.7781 -20.838
lclavicle 4.91992e-015 1.44119e-014
lhumerus -38.4923 10.3504 79.743
lradius 27.1567
lwrist -8.66499
lhand -21.0299 22.8263
lfingers 7.12502
lthumb 5.34547 52.7388
rfemur 8.36775 -0.624515 28.5907
rtibia 14.036
rfoot -16.8385 -1.58851
rtoes 0.251693
lfemur -26.2301 -2.16615 -15.6174
ltibia 17.4872
lfoot -6.1792 3.13368
ltoes -9.75425
39
root 10.6984 17.7796 -7.90187 1.07652 0.267934 -2.33626
lowerback 9.82595 2.46865 3.17201
upperback 1.77788 3.6254 0.515864
thorax -3.48678 1.76561 -1.69843
lowerneck -19.4692 -7.52831 -12.6567
upperneck 25.2118 -9.60688 10.2158
head 12.7939 -4.21159 4.39297
rclavicle -1.35422e-014 -1.13307e-014
rhumerus -28.049 -3.21566 -87.7987
rradius 34.9753
rwrist 2.49895
rhand -14.4473 9.05845
rfingers 7.12502
rthumb 11.6978 -20.595
lclavicle -1.35422e-014 -1.13307e-014
lhumerus -38.7213 10.2566 79.8137
lradius 27.3486
lwrist -8.43028
lhand -21.0587 23.0037
lfingers 7.12502
lthumb 5.31768 52.917
rfemur 8.53316 -0.541319 28.4929
rtibia 13.9066
rfoot -16.6127 -1.50022
rtoes 0.297752
lfemur -26.251 -2.262 -15.6663
ltibia 17.334
lfoot -5.80651 3.46675
ltoes -10.0524
40
root 10.7117 17.7854 -7.81957 1.13608 0.0645515 -2.31636
lowerback 9.92314 2.54128 3.12945
upperback 1.68977 3.72211 0.491113
thorax -3.62863 1.81001 -1.72004
lowerneck -19.3202 -7.48737 -12.7419
upperneck 25.1596 -9.58297 10.3772
head 12.7542 -4.19428 4.47743
rclavicle 2.36305e-014 1.03368e-014
rhumerus -28.0833 -3.06599 -87.8524
rradius 34.9395
rwrist 2.27505
rhand -14.506 9.40241
rfingers 7.12502
rthumb 11.6412 -20.2542
lclavicle 2.36305e-014 1.03368e-014
lhumerus -38.9903 10.1859 79.8245
lradius 27.5254
lwrist -8.32555
lhand -20.8136 23.3715
lfingers 7.12502
lthumb 5.55429 53.2787
rfemur 8.83342 -0.42649 28.3846
rtibia 13.7786
rfoot -16.5029 -1.30627
rtoes 0.471128
lfemur -26.0877 -2.23552 -15.7168
ltibia 17.2885
lfoot -5.57253 3.64009
ltoes -10.8029
41
root 10.7261 17.7868 -7.73397 1.2053 -0.0899223 -2.44583
lowerback 9.96482 2.61008 3.28312
upperback 1.63959 3.83186 0.478934
thorax -3.68755 1.86064 -1.83557
lowerneck -19.3738 -7.50573 -12.7295
upperneck 25.2142 -9.6262 10.4231
head 12.7955 -4.20467 4.48616
rclavicle -3.5657e-014 -9.93923e-015
rhumerus -28.014 -3.05953 -87.8634
rradius 34.8523
rwrist 2.49582
rhand -14.4072 9.45175
rfingers 7.12502
rthumb 11.7365 -20.1995
lclavicle -3.5657e-014 -9.93923e-015
lhumerus -39.054 10.021 79.8679
lradius 27.5599
lwrist -8.25744
lhand -20.6884 23.4538
lfingers 7.12502
lthumb 5.67522 53.3578
rfemur 9.10358 -0.46256 28.4168
rtibia 13.676
rfoot -16.365 -1.16464
rtoes -0.340639
lfemur -25.9599 -2.34965 -15.575
ltibia 17.3398
lfoot -5.34079 3.7829
ltoes -10.9643
42
root 10.7424 17.782 -7.646 1.28775 -0.175145 -2.51198
lowerback 9.89409 2.63482 3.36849
upperback 1.61703 3.87109 0.469697
thorax -3.66343 1.87931 -1.89419
lowerneck -19.4398 -7.56005 -12.6723
upperneck 25.3228 -9.69492 10.3223
head 12.853 -4.23957 4.4252
rclavicle 8.12532e-015 -1.26228e-014
rhumerus -27.9099 -3.26719 -87.8445
rradius 34.7327
rwrist 2.80392
rhand -14.4763 9.25884
rfingers 7.12502
rthumb 11.6698 -20.3962
lclavicle 8.12532e-015 -1.26228e-014
lhumerus -39.062 10.1391 79.8494
lradius 27.5167
lwrist -8.29653
lhand -20.57 23.0878
lfingers 7.12502
lthumb 5.78954 52.9887
rfemur 9.38168 -0.553076 28.3733
rtibia 13.5409
rfoot -16.2039 -1.02746
rtoes -1.31797
lfemur -25.904 -2.36604 -15.567
ltibia 17.5207
lfoot -4.84887 3.72836
ltoes -9.4807
43
root 10.7607 17.7827 -7.55453 1.36904 -0.294282 -2.45652
lowerback 9.84587 2.67416 3.32602
upperback 1.55554 3.91666 0.424017
thorax -3.6979 1.90082 -1.92269
lowerneck -19.4698 -7.5706 -12.6058
upperneck 25.4591 -9.71343 10.2318
head 12.9072 -4.25134 4.37793
rclavicle -1.6934e-014 1.85864e-014
rhumerus -27.8749 -3.37046 -87.8727
rradius 34.6453
rwrist 2.74186
rhand -14.612 9.0126
rfingers 7.12502
rthumb 11.539 -20.6498
lclavicle -1.6934e-014 1.85864e-014
lhumerus -39.2001 10.3263 79.7542
lradius 27.4949
lwrist -8.4934
lhand -20.4415 23.2024
lfingers 7.12502
lthumb 5.91358 53.0998
rfemur 9.63442 -0.673554 28.1574
rtibia 13.4722
rfoot -16.1187 -0.71963
rtoes -1.73497
lfemur -25.8283 -2.13655 -15.7704
ltibia 17.7424
lfoot -4.24216 3.28087
ltoes -7.08828
44
root 10.7786 17.7861 -7.46201 1.43723 -0.357339 -2.46655
lowerback 9.85213 2.68971 3.34723
upperback 1.49075 3.9401 0.391375
thorax -3.76385 1.90983 -1.97375
lowerneck -19.483 -7.5585 -12.5327
upperneck 25.5025 -9.71415 10.2034
head 12.9212 -4.24762 4.35523
rclavicle -2.68484e-014 3.97569e-016
rhumerus -27.792 -3.43769 -87.9015
rradius 34.4596
rwrist 3.02237
rhand -14.7892 9.60146
rfingers 7.12502
rthumb 11.368 -20.0704
lclavicle -2.68484e-014 3.97569e-016
lhumerus -39.3217 10.2544 79.7633
lradius 27.5294
lwrist -8.37505
lhand -20.4581 23.6611
lfingers 7.12502
lthumb 5.89751 53.559
rfemur 9.81937 -0.759472 28.0354
rtibia 13.5864
rfoot -16.0467 -0.441051
rtoes -1.7446
lfemur -25.6465 -2.08963 -15.8614
ltibia 17.9034
lfoot -3.87675 2.88115
ltoes -6.53876
45
root 10.7969 17.7851 -7.36849 1.56374 -0.345203 -2.54105
lowerback 9.73192 2.6905 3.44419
upperback 1.42212 3.94816 0.384233
thorax -3.76112 1.91191 -2.03153
lowerneck -19.2216 -7.52521 -12.5439
upperneck 25.2891 -9.70589 10.303
head 12.7871 -4.24151 4.39706
rclavicle -2.45375e-014 -3.97569e-016
rhumerus -27.7842 -3.61068 -87.893
rradius 34.3094
rwrist 3.29135
rhand -15.0578 9.99939
rfingers 7.12502
rthumb 11.109 -19.6866
lclavicle -2.45375e-014 -3.97569e-016
lhumerus -39.3627 10.0843 79.8307
lradius 27.5127
lwrist -8.04985
lhand -20.574 23.8204
lfingers 7.12502
lthumb 5.78567 53.7214
rfemur 9.92229 -0.855793 28.0138
rtibia 13.7595
rfoot -15.9226 -0.308539
rtoes -2.67808
lfemur -25.5053 -2.32598 -15.8193
ltibia 18.0435
lfoot -3.64427 2.65472
ltoes -9.03202
